<svg xmlns="http://www.w3.org/2000/svg" width="64" height="64" viewBox="0 0 64 64" shape-rendering="crispEdges">
  <defs>
    <linearGradient id="page" x1="0" y1="0" x2="0" y2="1">
      <stop offset="0" stop-color="#ffffff"/>
      <stop offset="1" stop-color="#d8e8ff"/>
    </linearGradient>
    <linearGradient id="tag" x1="0" y1="0" x2="0" y2="1">
      <stop offset="0" stop-color="#ffcf70"/>
      <stop offset="1" stop-color="#e87400"/>
    </linearGradient>
  </defs>
  <rect x="17" y="6" width="30" height="46" fill="#6f6f6f"/>
  <rect x="15" y="4" width="30" height="46" fill="url(#page)" stroke="#2156a5" stroke-width="2"/>
  <polygon points="37,4 45,12 37,12" fill="#b8d3ff" stroke="#2156a5" stroke-width="2"/>
  <rect x="19" y="17" width="22" height="4" fill="#8bb7f0"/>
  <rect x="19" y="24" width="18" height="4" fill="#8bb7f0"/>
  <rect x="19" y="31" width="22" height="4" fill="#8bb7f0"/>
  <rect x="12" y="39" width="40" height="18" fill="#a04f00"/>
  <rect x="10" y="37" width="40" height="18" fill="url(#tag)" stroke="#7a3a00" stroke-width="2"/>
  <rect x="14" y="41" width="6" height="10" fill="#ffffff"/>
  <rect x="22" y="41" width="4" height="10" fill="#ffffff"/>
  <rect x="28" y="41" width="6" height="10" fill="#ffffff"/>
  <rect x="36" y="41" width="4" height="10" fill="#ffffff"/>
  <rect x="42" y="41" width="4" height="10" fill="#ffffff"/>
  <rect x="22" y="45" width="4" height="2" fill="#e87400"/>
  <rect x="36" y="45" width="4" height="2" fill="#e87400"/>
</svg>
