<svg xmlns="http://www.w3.org/2000/svg" width="64" height="64" viewBox="0 0 64 64" shape-rendering="crispEdges">
  <defs>
    <linearGradient id="globe" x1="0" y1="0" x2="0" y2="1">
      <stop offset="0" stop-color="#8ed2ff"/>
      <stop offset="0.55" stop-color="#1d7ee8"/>
      <stop offset="1" stop-color="#0641a8"/>
    </linearGradient>
    <linearGradient id="orbit" x1="0" y1="0" x2="1" y2="1">
      <stop offset="0" stop-color="#fff7a8"/>
      <stop offset="1" stop-color="#ec9f00"/>
    </linearGradient>
  </defs>
  <rect x="15" y="12" width="36" height="36" rx="2" fill="#164484"/>
  <circle cx="31" cy="30" r="22" fill="url(#globe)" stroke="#003f9a" stroke-width="2"/>
  <path d="M12 31 C20 22, 39 20, 53 25 L51 29 C38 26, 22 27, 13 36 Z" fill="url(#orbit)" stroke="#9a6500" stroke-width="2"/>
  <path d="M20 18 C25 23, 26 37, 21 44" fill="none" stroke="#bce8ff" stroke-width="2"/>
  <path d="M41 18 C36 23, 35 37, 40 44" fill="none" stroke="#bce8ff" stroke-width="2"/>
  <rect x="11" y="29" width="7" height="4" fill="#fff7a8"/>
  <rect x="45" y="25" width="8" height="4" fill="#ec9f00"/>
  <rect x="19" y="29" width="25" height="3" fill="#fff1a0"/>
  <rect x="22" y="39" width="18" height="3" fill="#0b5fcf"/>
  <rect x="24" y="18" width="14" height="3" fill="#78c8ff"/>
</svg>
