<svg xmlns="http://www.w3.org/2000/svg" width="64" height="64" viewBox="0 0 64 64" shape-rendering="crispEdges">
  <defs>
    <linearGradient id="notePage" x1="0" y1="0" x2="0" y2="1">
      <stop offset="0" stop-color="#fffbe8"/>
      <stop offset="1" stop-color="#f4d36a"/>
    </linearGradient>
    <linearGradient id="pen" x1="0" y1="0" x2="1" y2="1">
      <stop offset="0" stop-color="#59a7ff"/>
      <stop offset="1" stop-color="#004fc4"/>
    </linearGradient>
  </defs>
  <rect x="16" y="7" width="34" height="45" fill="#7f6d2d"/>
  <rect x="14" y="5" width="34" height="45" fill="url(#notePage)" stroke="#8c782f" stroke-width="2"/>
  <rect x="18" y="13" width="24" height="2" fill="#d4a634"/>
  <rect x="18" y="19" width="20" height="2" fill="#d4a634"/>
  <rect x="18" y="25" width="24" height="2" fill="#d4a634"/>
  <rect x="18" y="31" width="18" height="2" fill="#d4a634"/>
  <rect x="18" y="37" width="22" height="2" fill="#d4a634"/>
  <rect x="36" y="28" width="6" height="27" fill="#092d8f" transform="rotate(45 39 41)"/>
  <rect x="34" y="26" width="6" height="27" fill="url(#pen)" stroke="#00296e" stroke-width="1" transform="rotate(45 37 39)"/>
  <polygon points="47,47 54,54 44,57" fill="#d7b38c" stroke="#7b4f25" stroke-width="1"/>
  <polygon points="51,51 54,54 50,55" fill="#111111"/>
</svg>
